<svg width="127" height="30" viewBox="0 0 127 30" fill="none" xmlns="http://www.w3.org/2000/svg">
<path d="M2 21.4688L14.9375 8.53125" stroke="#16F2A5" stroke-width="4" stroke-linecap="round" stroke-linejoin="round"/>
<path d="M14.9375 8.53125H25" stroke="#16F2A5" stroke-width="4" stroke-linecap="round" stroke-linejoin="round"/>
<path d="M25 8.53125V18.5938" stroke="#16F2A5" stroke-width="4" stroke-linecap="round" stroke-linejoin="round"/>
<path d="M35.216 21L39.698 8.4H41.228L45.71 21H44.198L42.956 17.49H37.97L36.728 21H35.216ZM38.492 16.05H42.434L40.472 10.506L38.492 16.05ZM47.6436 21V8.4H52.1976C52.9536 8.4 53.5776 8.514 54.0696 8.742C54.5736 8.958 54.9756 9.246 55.2756 9.606C55.5756 9.966 55.7856 10.362 55.9056 10.794C56.0376 11.214 56.1036 11.628 56.1036 12.036C56.1036 12.732 55.8996 13.404 55.4916 14.052C55.0836 14.7 54.4536 15.18 53.6016 15.492L56.8056 21H54.9336L51.9816 15.744H49.2636V21H47.6436ZM49.2276 14.304H52.1976C52.8576 14.304 53.4036 14.088 53.8356 13.656C54.2676 13.212 54.4836 12.672 54.4836 12.036C54.4836 11.652 54.3876 11.298 54.1956 10.974C54.0036 10.638 53.7336 10.368 53.3856 10.164C53.0496 9.948 52.6596 9.84 52.2156 9.84H49.2276V14.304ZM59.2803 21V8.4H63.8343C64.5903 8.4 65.2143 8.514 65.7063 8.742C66.2103 8.958 66.6123 9.246 66.9123 9.606C67.2123 9.966 67.4223 10.362 67.5423 10.794C67.6743 11.214 67.7403 11.628 67.7403 12.036C67.7403 12.732 67.5363 13.404 67.1283 14.052C66.7203 14.7 66.0903 15.18 65.2383 15.492L68.4423 21H66.5703L63.6183 15.744H60.9003V21H59.2803ZM60.8643 14.304H63.8343C64.4943 14.304 65.0403 14.088 65.4723 13.656C65.9043 13.212 66.1203 12.672 66.1203 12.036C66.1203 11.652 66.0243 11.298 65.8323 10.974C65.6403 10.638 65.3703 10.368 65.0223 10.164C64.6863 9.948 64.2963 9.84 63.8523 9.84H60.8643V14.304ZM75.903 21.198C74.895 21.198 74.031 21.024 73.311 20.676C72.591 20.328 71.997 19.854 71.529 19.254C71.073 18.642 70.737 17.946 70.521 17.166C70.305 16.374 70.197 15.546 70.197 14.682C70.197 13.818 70.305 12.996 70.521 12.216C70.737 11.424 71.073 10.728 71.529 10.128C71.997 9.516 72.591 9.036 73.311 8.688C74.031 8.34 74.895 8.166 75.903 8.166C76.911 8.166 77.775 8.34 78.495 8.688C79.215 9.036 79.803 9.516 80.259 10.128C80.727 10.728 81.069 11.424 81.285 12.216C81.501 12.996 81.609 13.818 81.609 14.682C81.609 15.546 81.501 16.374 81.285 17.166C81.069 17.946 80.727 18.642 80.259 19.254C79.803 19.854 79.215 20.328 78.495 20.676C77.775 21.024 76.911 21.198 75.903 21.198ZM75.903 19.758C76.851 19.758 77.619 19.53 78.207 19.074C78.807 18.618 79.245 18.006 79.521 17.238C79.809 16.458 79.953 15.606 79.953 14.682C79.953 13.746 79.809 12.894 79.521 12.126C79.245 11.358 78.807 10.746 78.207 10.29C77.619 9.834 76.851 9.606 75.903 9.606C75.027 9.606 74.283 9.834 73.671 10.29C73.071 10.746 72.615 11.358 72.303 12.126C72.003 12.894 71.853 13.746 71.853 14.682C71.853 15.606 72.003 16.458 72.303 17.238C72.615 18.006 73.071 18.618 73.671 19.074C74.283 19.53 75.027 19.758 75.903 19.758ZM85.8056 21L83.1056 8.4H84.7796L86.8856 18.912L89.9636 8.4H91.9076L94.9856 18.912L97.0916 8.4H98.7656L96.0656 21H93.9956L90.9356 10.758L87.8756 21H85.8056ZM107.772 21V9.84H104.352V8.4H112.776V9.84H109.356V21H107.772ZM119.616 21.234C118.632 21.234 117.786 21.048 117.078 20.676C116.37 20.304 115.794 19.8 115.35 19.164C114.906 18.528 114.576 17.82 114.36 17.04C114.156 16.248 114.054 15.438 114.054 14.61C114.054 13.746 114.156 12.924 114.36 12.144C114.576 11.364 114.906 10.68 115.35 10.092C115.806 9.492 116.382 9.024 117.078 8.688C117.786 8.34 118.632 8.166 119.616 8.166C120.576 8.166 121.41 8.328 122.118 8.652C122.838 8.976 123.426 9.426 123.882 10.002C124.338 10.566 124.65 11.22 124.818 11.964L123.216 12.288C123.012 11.508 122.598 10.866 121.974 10.362C121.35 9.858 120.564 9.606 119.616 9.606C118.752 9.606 118.026 9.828 117.438 10.272C116.862 10.704 116.424 11.298 116.124 12.054C115.824 12.798 115.674 13.638 115.674 14.574C115.674 15.546 115.824 16.428 116.124 17.22C116.424 18.012 116.862 18.642 117.438 19.11C118.026 19.566 118.752 19.794 119.616 19.794C120.564 19.794 121.35 19.542 121.974 19.038C122.598 18.522 123.012 17.88 123.216 17.112L124.818 17.436C124.65 18.168 124.338 18.822 123.882 19.398C123.426 19.974 122.838 20.424 122.118 20.748C121.41 21.072 120.576 21.234 119.616 21.234Z" fill="#16F2A5"/>
</svg>
